<?xml version="1.0" encoding="UTF-8"?>
<svg version="1.1" xmlns="http://www.w3.org/2000/svg" width="215" height="62">
<path d="M0 0 C1.12962225 -0.00551503 1.12962225 -0.00551503 2.28206515 -0.01114148 C4.81302995 -0.02218068 7.34395369 -0.02602255 9.87493896 -0.02983093 C11.6866621 -0.03609539 13.49838394 -0.04274217 15.31010437 -0.04974365 C20.23792105 -0.06715449 25.16572803 -0.07770559 30.09356785 -0.08594918 C33.17196636 -0.09109905 36.25036186 -0.09717478 39.32875824 -0.10346031 C48.95936309 -0.12251243 58.58996027 -0.13674366 68.22058034 -0.14507228 C79.33936975 -0.15484651 90.45796018 -0.18117083 101.57667947 -0.22157317 C110.16956129 -0.25172642 118.76238604 -0.26654039 127.35531974 -0.26985329 C132.48809111 -0.27220461 137.62064992 -0.2811758 142.75336456 -0.30631447 C147.58297483 -0.32958641 152.41223243 -0.33383192 157.24188423 -0.32355309 C159.01277145 -0.32305741 160.78367599 -0.32938728 162.55451012 -0.34310913 C164.97613358 -0.36082128 167.39649041 -0.35372607 169.81811523 -0.34057617 C170.51550442 -0.35154542 171.21289361 -0.36251466 171.9314158 -0.37381631 C177.31767297 -0.30341599 180.30570016 1.2088275 184.6630249 4.14717102 C189.28494293 9.13397731 189.82671814 13.08463424 189.8661499 19.66670227 C189.87184998 20.40289291 189.87755005 21.13908356 189.88342285 21.89758301 C189.89286247 23.45512968 189.89940271 25.01269622 189.90325928 26.57026672 C189.91294721 28.94066188 189.94397166 31.31018305 189.9755249 33.68037415 C189.98205731 35.19664506 189.98730685 36.71292215 189.9911499 38.22920227 C190.0096701 39.2841967 190.0096701 39.2841967 190.02856445 40.36050415 C190.00463082 45.70826612 188.8044708 49.79938789 185.1630249 53.79170227 C180.10454232 57.73046866 176.54563593 58.2952438 170.31932068 58.28761292 C169.56553361 58.29058404 168.81174655 58.29355516 168.03511745 58.29661632 C165.50181437 58.30530842 162.96855852 58.30681199 160.4352417 58.30830383 C158.62189635 58.31293164 156.80855198 58.31795625 154.99520874 58.323349 C150.063323 58.33647847 145.13145088 58.34291901 140.19955039 58.34735966 C137.1191494 58.35028945 134.03875215 58.35439408 130.95835304 58.35886383 C121.32294249 58.3725401 111.68754045 58.38220617 102.05212086 58.38606572 C90.92486768 58.39054718 79.79773728 58.40809861 68.67052144 58.43706632 C60.07255891 58.45867355 51.47463096 58.46876949 42.87664157 58.47010684 C37.74003145 58.47115554 32.60353675 58.47707718 27.46695518 58.49492645 C22.63492797 58.51139058 17.80310314 58.51357069 12.97105789 58.50478745 C11.19814449 58.50401619 9.42522028 58.50837148 7.65233421 58.5182457 C5.23054143 58.53094236 2.80946786 58.52510111 0.38768005 58.5146637 C-0.66277299 58.5267483 -0.66277299 58.5267483 -1.7344473 58.53907704 C-6.9906252 58.4861571 -11.06051308 57.22356393 -14.98150635 53.64717102 C-18.94609961 48.55551947 -19.50251122 44.90208772 -19.5401001 38.62763977 C-19.54580017 37.89144913 -19.55150024 37.15525848 -19.55737305 36.39675903 C-19.56681266 34.83921236 -19.57335291 33.28164582 -19.57720947 31.72407532 C-19.58689741 29.35368016 -19.61792185 26.984159 -19.6494751 24.6139679 C-19.65600751 23.09769698 -19.66125705 21.58141989 -19.6651001 20.06513977 C-19.6774469 19.36181015 -19.6897937 18.65848053 -19.70251465 17.93383789 C-19.67858101 12.58607592 -18.47842099 8.49495415 -14.8369751 4.50263977 C-9.78230503 0.56684199 -6.22191276 -0.00162405 0 0 Z M-6.0869751 14.52217102 C-9.23652958 18.61659184 -8.52053121 24.17453384 -8.5244751 29.08467102 C-8.53672119 29.88324524 -8.54896729 30.68181946 -8.56158447 31.5045929 C-8.57437035 36.64877868 -8.25372493 40.70767123 -4.9619751 44.89717102 C-1.37136184 47.65918122 2.81484252 47.26466276 7.1786499 47.24482727 C9.05423584 47.23999329 9.05423584 47.23999329 10.9677124 47.23506165 C12.26966553 47.22668274 13.57161865 47.21830383 14.9130249 47.20967102 C16.23044678 47.2051593 17.54786865 47.20064758 18.9052124 47.19599915 C22.15786231 47.18421418 25.41042075 47.16776113 28.6630249 47.14717102 C28.5702124 45.91869446 28.4773999 44.6902179 28.3817749 43.42451477 C28.3817749 37.00459829 30.78444332 31.58469609 33.1630249 25.70967102 C34.00926355 23.56612058 34.85314111 21.42163601 35.6942749 19.27607727 C36.07132568 18.33836487 36.44837646 17.40065247 36.83685303 16.43452454 C37.77626193 14.23899174 37.77626193 14.23899174 37.6630249 12.14717102 C40.28967393 12.23392822 42.91280572 12.34075084 45.5380249 12.45967102 C46.28439209 12.48222961 47.03075928 12.50478821 47.79974365 12.5280304 C49.7626289 12.62529048 51.71630812 12.87759396 53.6630249 13.14717102 C54.3230249 14.13717102 54.9830249 15.12717102 55.6630249 16.14717102 C55.9930249 14.49717102 56.3230249 12.84717102 56.6630249 11.14717102 C48.77934516 11.09646176 40.89570748 11.06143347 33.01190186 11.03730774 C30.32988844 11.02837987 27.64796975 11.01446384 24.96600342 10.99629211 C21.1110768 10.97203383 17.25629517 10.96068543 13.40130615 10.95185852 C12.20218094 10.94153595 11.00305573 10.93121338 9.76759338 10.920578 C8.64680893 10.92042694 7.52602448 10.92027588 6.37127686 10.92012024 C5.38754593 10.91567902 4.403815 10.91123779 3.39027405 10.90666199 C-0.30081724 11.23216976 -3.16848865 12.22907453 -6.0869751 14.52217102 Z M70.6630249 11.14717102 C70.6630249 13.78717102 70.6630249 16.42717102 70.6630249 19.14717102 C72.45308432 19.50937368 74.24514547 19.86169571 76.0380249 20.20967102 C77.03575928 20.40689758 78.03349365 20.60412415 79.0614624 20.80732727 C81.64145029 21.39100054 81.64145029 21.39100054 83.6630249 20.14717102 C85.74580159 20.09901433 87.83001494 20.110466 89.9130249 20.14717102 C100.17734809 20.2610896 110.41545536 19.67520804 120.6630249 19.14717102 C120.6630249 17.82717102 120.6630249 16.50717102 120.6630249 15.14717102 C127.5930249 15.64217102 127.5930249 15.64217102 134.6630249 16.14717102 C135.1580249 17.63217102 135.1580249 17.63217102 135.6630249 19.14717102 C137.3130249 19.47717102 138.9630249 19.80717102 140.6630249 20.14717102 C140.72361084 21.13717102 140.78419678 22.12717102 140.84661865 23.14717102 C140.93101847 24.48051929 141.01567016 25.81385163 141.1005249 27.14717102 C141.1427417 27.83399963 141.1849585 28.52082825 141.22845459 29.22846985 C141.46043128 32.80590596 141.8009358 36.30338772 142.4130249 39.83467102 C142.7043236 43.69437877 142.05866743 44.3131506 139.6630249 47.14717102 C143.84391682 47.19678453 148.02465057 47.23299118 152.20574951 47.2570343 C153.62667834 47.26706248 155.04758668 47.28068843 156.46844482 47.29804993 C158.51642934 47.32243923 160.56413988 47.33368592 162.61224365 47.34248352 C163.84289551 47.35295715 165.07354736 47.36343079 166.3414917 47.3742218 C170.35098476 47.100144 173.24674884 46.25995936 176.4130249 43.77217102 C179.56257938 39.6777502 178.84658102 34.1198082 178.8505249 29.20967102 C178.862771 28.4110968 178.87501709 27.61252258 178.88763428 26.78974915 C178.90042016 21.64556336 178.57977474 17.58667081 175.2880249 13.39717102 C172.32267036 11.11612906 169.06460554 11.02229592 165.42358398 11.0269165 C164.58508408 11.02554184 163.74658417 11.02416718 162.88267517 11.02275085 C161.97133316 11.02634613 161.05999115 11.02994141 160.12103271 11.03364563 C158.67175133 11.03342659 158.67175133 11.03342659 157.19319153 11.03320312 C154.00082145 11.03389958 150.80850978 11.04167953 147.6161499 11.04951477 C145.40226269 11.0513799 143.18837507 11.05280335 140.9744873 11.05380249 C135.14822245 11.0576202 129.32198254 11.06744415 123.49572754 11.07850647 C117.55019468 11.08873661 111.60465778 11.09330355 105.65911865 11.0983429 C93.99374311 11.10906706 82.32838608 11.12613456 70.6630249 11.14717102 Z M44.6630249 42.14717102 C44.0030249 43.79717102 43.3430249 45.44717102 42.6630249 47.14717102 C44.6430249 47.14717102 46.6230249 47.14717102 48.6630249 47.14717102 C48.0030249 45.49717102 47.3430249 43.84717102 46.6630249 42.14717102 C46.0030249 42.14717102 45.3430249 42.14717102 44.6630249 42.14717102 Z M121.6630249 44.14717102 C120.3430249 45.13717102 119.0230249 46.12717102 117.6630249 47.14717102 C120.3030249 47.14717102 122.9430249 47.14717102 125.6630249 47.14717102 C124.3430249 46.15717102 123.0230249 45.16717102 121.6630249 44.14717102 Z M79.6630249 45.14717102 C79.0030249 45.80717102 78.3430249 46.46717102 77.6630249 47.14717102 C79.6430249 47.14717102 81.6230249 47.14717102 83.6630249 47.14717102 C82.3430249 46.48717102 81.0230249 45.82717102 79.6630249 45.14717102 Z M99.6630249 45.14717102 C99.0030249 45.80717102 98.3430249 46.46717102 97.6630249 47.14717102 C99.9730249 47.14717102 102.2830249 47.14717102 104.6630249 47.14717102 C101.98660002 44.96227096 101.98660002 44.96227096 99.6630249 45.14717102 Z " fill="#000101" transform="translate(22.33697509765625,3.8528289794921875)"/>
<path d="M0 0 C1.12962225 -0.00551503 1.12962225 -0.00551503 2.28206515 -0.01114148 C4.81302995 -0.02218068 7.34395369 -0.02602255 9.87493896 -0.02983093 C11.6866621 -0.03609539 13.49838394 -0.04274217 15.31010437 -0.04974365 C20.23792105 -0.06715449 25.16572803 -0.07770559 30.09356785 -0.08594918 C33.17196636 -0.09109905 36.25036186 -0.09717478 39.32875824 -0.10346031 C48.95936309 -0.12251243 58.58996027 -0.13674366 68.22058034 -0.14507228 C79.33936975 -0.15484651 90.45796018 -0.18117083 101.57667947 -0.22157317 C110.16956129 -0.25172642 118.76238604 -0.26654039 127.35531974 -0.26985329 C132.48809111 -0.27220461 137.62064992 -0.2811758 142.75336456 -0.30631447 C147.58297483 -0.32958641 152.41223243 -0.33383192 157.24188423 -0.32355309 C159.01277145 -0.32305741 160.78367599 -0.32938728 162.55451012 -0.34310913 C164.97613358 -0.36082128 167.39649041 -0.35372607 169.81811523 -0.34057617 C170.51550442 -0.35154542 171.21289361 -0.36251466 171.9314158 -0.37381631 C177.31767297 -0.30341599 180.30570016 1.2088275 184.6630249 4.14717102 C189.28494293 9.13397731 189.82671814 13.08463424 189.8661499 19.66670227 C189.87184998 20.40289291 189.87755005 21.13908356 189.88342285 21.89758301 C189.89286247 23.45512968 189.89940271 25.01269622 189.90325928 26.57026672 C189.91294721 28.94066188 189.94397166 31.31018305 189.9755249 33.68037415 C189.98205731 35.19664506 189.98730685 36.71292215 189.9911499 38.22920227 C190.0096701 39.2841967 190.0096701 39.2841967 190.02856445 40.36050415 C190.00463082 45.70826612 188.8044708 49.79938789 185.1630249 53.79170227 C180.10454232 57.73046866 176.54563593 58.2952438 170.31932068 58.28761292 C169.56553361 58.29058404 168.81174655 58.29355516 168.03511745 58.29661632 C165.50181437 58.30530842 162.96855852 58.30681199 160.4352417 58.30830383 C158.62189635 58.31293164 156.80855198 58.31795625 154.99520874 58.323349 C150.063323 58.33647847 145.13145088 58.34291901 140.19955039 58.34735966 C137.1191494 58.35028945 134.03875215 58.35439408 130.95835304 58.35886383 C121.32294249 58.3725401 111.68754045 58.38220617 102.05212086 58.38606572 C90.92486768 58.39054718 79.79773728 58.40809861 68.67052144 58.43706632 C60.07255891 58.45867355 51.47463096 58.46876949 42.87664157 58.47010684 C37.74003145 58.47115554 32.60353675 58.47707718 27.46695518 58.49492645 C22.63492797 58.51139058 17.80310314 58.51357069 12.97105789 58.50478745 C11.19814449 58.50401619 9.42522028 58.50837148 7.65233421 58.5182457 C5.23054143 58.53094236 2.80946786 58.52510111 0.38768005 58.5146637 C-0.66277299 58.5267483 -0.66277299 58.5267483 -1.7344473 58.53907704 C-6.9906252 58.4861571 -11.06051308 57.22356393 -14.98150635 53.64717102 C-18.94609961 48.55551947 -19.50251122 44.90208772 -19.5401001 38.62763977 C-19.54580017 37.89144913 -19.55150024 37.15525848 -19.55737305 36.39675903 C-19.56681266 34.83921236 -19.57335291 33.28164582 -19.57720947 31.72407532 C-19.58689741 29.35368016 -19.61792185 26.984159 -19.6494751 24.6139679 C-19.65600751 23.09769698 -19.66125705 21.58141989 -19.6651001 20.06513977 C-19.6774469 19.36181015 -19.6897937 18.65848053 -19.70251465 17.93383789 C-19.67858101 12.58607592 -18.47842099 8.49495415 -14.8369751 4.50263977 C-9.78230503 0.56684199 -6.22191276 -0.00162405 0 0 Z M-13.67657471 8.96577454 C-16.39279767 14.17017115 -15.96802903 19.26525634 -15.91339111 25.03266907 C-15.89952677 27.07705233 -15.93362938 29.11684553 -15.97174072 31.1608429 C-16.11149917 39.17780744 -16.11149917 39.17780744 -13.11431885 46.40107727 C-8.17516529 51.28465667 -4.91759484 52.52196195 2.0506897 52.53485107 C2.78506229 52.54023661 3.51943487 52.54562215 4.27606118 52.55117089 C6.7318807 52.56545537 9.18716158 52.5583457 11.64300537 52.55122375 C13.40576612 52.55692713 15.16852318 52.56389126 16.93127441 52.57202148 C21.7164729 52.58997299 26.50148821 52.5887806 31.28671026 52.5830791 C35.28272261 52.57998971 39.27869964 52.58607701 43.27470696 52.59211785 C52.703167 52.6061684 62.13153645 52.60459775 71.55999756 52.59321594 C81.28316 52.58173766 91.00604652 52.59580433 100.72917259 52.62261242 C109.08007654 52.64477407 117.43089391 52.65140564 125.78182518 52.64553601 C130.76810888 52.64216592 135.75421576 52.64458478 140.7404747 52.66178703 C145.43061736 52.67726116 150.12035166 52.67329541 154.81047821 52.65448189 C156.52975258 52.65079712 158.24905722 52.65390124 159.96830368 52.66436768 C162.3198025 52.67758776 164.66995144 52.66602249 167.02139282 52.64837646 C168.33582808 52.64816718 169.65026333 52.6479579 171.00452995 52.64774227 C176.64920241 51.87541354 180.33630613 49.71295762 184.0692749 45.30732727 C186.93355741 39.5680518 186.23747629 32.82928084 186.1630249 26.58467102 C186.17849365 25.28336243 186.1939624 23.98205383 186.2098999 22.64131165 C186.20216553 20.75509094 186.20216553 20.75509094 186.1942749 18.83076477 C186.18750732 17.12231384 186.18750732 17.12231384 186.18060303 15.37934875 C185.34992844 10.19194269 183.03906916 7.25099697 178.98870087 4.00189972 C175.20638219 1.89250149 172.32230072 1.58418643 168.1104126 1.63923645 C167.37039647 1.63299649 166.63038033 1.62675653 165.86793947 1.62032747 C163.39891573 1.60442731 160.93088334 1.61698936 158.46185303 1.6295929 C156.68746873 1.62417043 154.91308893 1.61704707 153.13871765 1.60835266 C148.3267276 1.59013116 143.51508093 1.59718201 138.70308495 1.609869 C133.66502336 1.62000272 128.62699098 1.61060229 123.58892822 1.60432434 C115.12871019 1.59704903 106.66863187 1.60663262 98.20843506 1.62568665 C88.43012244 1.64745514 78.65214344 1.64040369 68.8738389 1.61838102 C60.47536315 1.60022374 52.07698778 1.59767032 43.67849874 1.6081357 C38.66376878 1.61436881 33.64919558 1.61521123 28.63447571 1.60198975 C23.91968242 1.59042712 19.20531888 1.59846454 14.49057198 1.62156677 C12.76120784 1.62685166 11.03180749 1.62534384 9.30245781 1.61651611 C6.93969759 1.60556788 4.57831019 1.61931392 2.21563721 1.63923645 C1.53294533 1.63031356 0.85025346 1.62139068 0.14687395 1.6121974 C-6.11677289 1.71448622 -9.76043768 4.24785718 -13.67657471 8.96577454 Z " fill="#000000" transform="translate(22.33697509765625,3.8528289794921875)"/>
<path d="M0 0 C1.1100242 -0.00935994 1.1100242 -0.00935994 2.24247313 -0.01890898 C4.71149687 -0.03480914 7.17952926 -0.02224709 9.64855957 -0.00964355 C11.42294387 -0.01506602 13.19732366 -0.02218938 14.97169495 -0.03088379 C19.783685 -0.04910529 24.59533166 -0.04205444 29.40732765 -0.02936745 C34.44538924 -0.01923373 39.48342162 -0.02863416 44.52148438 -0.03491211 C52.98170241 -0.04218742 61.44178072 -0.03260383 69.90197754 -0.0135498 C79.68029016 0.00821869 89.45826916 0.00116724 99.2365737 -0.02085543 C107.63504945 -0.03901271 116.03342482 -0.04156613 124.43191385 -0.03110075 C129.44664382 -0.02486764 134.46121702 -0.02402522 139.47593689 -0.0372467 C144.19073017 -0.04880933 148.90509372 -0.04077191 153.61984062 -0.01766968 C155.34920475 -0.01238479 157.07860511 -0.01389261 158.80795479 -0.02272034 C161.170715 -0.03366857 163.53210241 -0.01992253 165.89477539 0 C166.57746727 -0.00892289 167.26015914 -0.01784577 167.96353865 -0.02703905 C172.8803069 0.0532545 175.64819672 1.46032506 179.4473877 4.50793457 C182.97313214 8.77212987 183.95686494 11.69507514 183.9786377 17.19152832 C183.98637207 19.07774902 183.98637207 19.07774902 183.9942627 21.0020752 C183.97879395 22.30338379 183.9633252 23.60469238 183.9473877 24.94543457 C183.97059082 26.89159668 183.97059082 26.89159668 183.9942627 28.8770752 C183.94377937 41.20131647 183.94377937 41.20131647 179.4473877 46.50793457 C174.35693433 49.9490009 171.08677762 51.00918765 164.81921387 51.02259827 C164.08313243 51.02954379 163.34705099 51.03648932 162.58866405 51.04364532 C160.13891379 51.06184253 157.69013997 51.05167203 155.24035645 51.04138184 C153.47729776 51.04844397 151.71424514 51.05719023 149.95120239 51.06748962 C145.17434007 51.08995886 140.39780945 51.08704988 135.62091446 51.07816815 C131.62976305 51.0730525 127.63867366 51.08035541 123.64752865 51.08764023 C114.23147583 51.10463098 104.8155851 51.10108116 95.39953613 51.08435059 C85.69103886 51.06742331 75.98299101 51.08327403 66.27454281 51.11557347 C57.93207698 51.14227507 49.58975101 51.14954402 41.24724674 51.14105839 C36.26766545 51.13613167 31.28835466 51.13833125 26.30880737 51.1588459 C21.62676044 51.17721239 16.9453599 51.17123255 12.26334763 51.1466465 C10.54729916 51.14164199 8.83120136 51.14511906 7.11519241 51.15779495 C4.76790909 51.17375959 2.42274571 51.15874593 0.07556152 51.13612366 C-1.23627609 51.13553735 -2.54811371 51.13495104 -3.89970398 51.13434696 C-9.40461239 50.19034768 -13.00617066 47.43856568 -16.4630127 43.1229248 C-18.5239928 38.17666492 -18.03193967 32.92731734 -17.99865723 27.64294434 C-17.99014905 25.57934707 -18.01893087 23.51852432 -18.05065918 21.4552002 C-18.05001465 20.1435791 -18.04937012 18.83195801 -18.04870605 17.48059082 C-18.05055908 16.28699951 -18.05241211 15.0934082 -18.05432129 13.86364746 C-17.26514628 8.58519956 -14.99441252 5.66384008 -10.87815094 2.36379242 C-7.09582171 0.25301695 -4.21242285 -0.05505701 0 0 Z M-13.5526123 9.50793457 C-15.70276834 13.80824664 -14.78225327 19.53463834 -14.8026123 24.25793457 C-14.8232373 25.43871582 -14.8438623 26.61949707 -14.8651123 27.83605957 C-14.98313735 36.11523766 -14.98313735 36.11523766 -11.5526123 43.50793457 C-7.02481301 47.74361778 -2.55293688 47.63424017 3.4490509 47.64837646 C4.1539842 47.65134759 4.8589175 47.65431871 5.58521241 47.65737987 C7.94724186 47.66605118 10.30922054 47.66757378 12.67126465 47.66906738 C14.36490995 47.67369664 16.05855422 47.67872145 17.75219727 47.68411255 C22.35352294 47.69722762 26.95483403 47.7036797 31.55617547 47.70812321 C34.43139037 47.71105521 37.3066013 47.71516025 40.18181419 47.71962738 C49.17916988 47.7332996 58.17651647 47.74296776 67.17388183 47.74682927 C77.55741212 47.7513103 87.94081079 47.76886147 98.32430106 47.79782987 C106.35245289 47.81944928 114.3805677 47.82953368 122.40874833 47.83087039 C127.20276493 47.83191818 131.99665776 47.83782048 136.79064369 47.85569 C141.30094749 47.87217528 145.81103453 47.87432397 150.32135773 47.86555099 C151.97452309 47.86478088 153.62770014 47.86911996 155.28083611 47.87900925 C157.54240556 47.89174231 159.80320884 47.88584517 162.06477356 47.87542725 C163.96094406 47.87762709 163.96094406 47.87762709 165.89542103 47.87987137 C171.08990493 47.3359418 174.99824448 45.89044374 178.84729004 42.21838379 C181.86316164 37.10971633 181.10192619 31.41657204 181.0723877 25.63293457 C181.12072754 23.75154785 181.12072754 23.75154785 181.17004395 21.83215332 C181.24405946 13.9332261 181.24405946 13.9332261 177.5958252 7.18762207 C173.62310404 3.25952431 169.77577963 3.37582783 164.37615967 3.3473053 C163.65166303 3.34221748 162.9271664 3.33712966 162.18071532 3.33188766 C159.74649604 3.31615787 157.31230646 3.30763676 154.87805176 3.29919434 C153.13529268 3.28965636 151.3925355 3.27976523 149.64978027 3.26954651 C143.92088062 3.23815718 138.19196642 3.21789538 132.4630127 3.19934082 C131.48844462 3.1960435 130.51387655 3.19274618 129.50977612 3.18934894 C120.31943889 3.15856998 111.12909839 3.13186159 101.93872452 3.11493015 C90.18214303 3.09301714 78.42601788 3.05103067 66.66961884 2.98149258 C58.40370248 2.93425962 50.13790927 2.9099976 41.87186217 2.90273327 C36.93457992 2.89777629 31.99781199 2.88269083 27.06067657 2.84298897 C22.4147941 2.80612126 17.76971966 2.79771325 13.12371826 2.8109951 C11.42053749 2.81094116 9.71732089 2.80064595 8.0142746 2.77924347 C-4.17948242 2.41262409 -4.17948242 2.41262409 -13.5526123 9.50793457 Z " fill="#AEF2E4" transform="translate(24.5526123046875,5.4920654296875)"/>
<path d="M0 0 C2.31 0 4.62 0 7 0 C7 2.97 7 5.94 7 9 C7.66 8.67 8.32 8.34 9 8 C15.24793388 7.4214876 15.24793388 7.4214876 18.4375 9.875 C20 12 20 12 20 14 C20.66 14 21.32 14 22 14 C22.268125 13.38125 22.53625 12.7625 22.8125 12.125 C24 10 24 10 27 8 C33.94677871 7.32773109 33.94677871 7.32773109 37.9375 9.875 C41.09695358 13.1301946 41.33421243 15.42413238 41.29296875 19.9609375 C40.83745033 23.13134567 39.24684343 24.8192402 37 27 C33.79776203 28.60111899 30.47461286 28.49827144 27 28 C24 26.125 24 26.125 22 24 C22 23.34 22 22.68 22 22 C21.34 22 20.68 22 20 22 C19.71125 22.61875 19.4225 23.2375 19.125 23.875 C18 26 18 26 16 28 C13.56982422 28.22705078 13.56982422 28.22705078 10.5546875 28.1953125 C9.47832031 28.18886719 8.40195313 28.18242188 7.29296875 28.17578125 C6.16503906 28.15902344 5.03710938 28.14226563 3.875 28.125 C2.73933594 28.11597656 1.60367188 28.10695313 0.43359375 28.09765625 C-2.37781299 28.07403098 -5.18880298 28.04109013 -8 28 C-8.33 26.68 -8.66 25.36 -9 24 C-12.3 23.67 -15.6 23.34 -19 23 C-19.33 24.65 -19.66 26.3 -20 28 C-22.64 28 -25.28 28 -28 28 C-25.43696551 18.84951721 -22.20468777 9.93993804 -19 1 C-15.7 1 -12.4 1 -9 1 C-6.36 7.93 -3.72 14.86 -1 22 C-0.67 14.74 -0.34 7.48 0 0 Z " fill="#B1EFDE" transform="translate(82,17)"/>
<path d="M0 0 C23.495805 -0.0934256 46.99158217 -0.16397057 70.48753548 -0.20724869 C81.3970269 -0.22787725 92.30640294 -0.25600355 103.21582031 -0.30175781 C112.72404904 -0.34161647 122.2321942 -0.36743068 131.74050415 -0.37635398 C136.77549386 -0.38157035 141.8102445 -0.39383697 146.84515762 -0.42292023 C151.584425 -0.4500739 156.32335486 -0.45844506 161.06269264 -0.45243073 C162.80175295 -0.45353098 164.54082456 -0.46148519 166.27981758 -0.4768219 C168.65596309 -0.49674959 171.03083748 -0.4919298 173.40701294 -0.48101807 C174.09379753 -0.49266943 174.78058213 -0.5043208 175.48817837 -0.51632524 C180.42332085 -0.45514539 183.18906196 0.93768052 187 4 C190.52574444 8.2641953 191.50947725 11.18714057 191.53125 16.68359375 C191.53898437 18.56981445 191.53898437 18.56981445 191.546875 20.49414062 C191.53140625 21.79544922 191.5159375 23.09675781 191.5 24.4375 C191.52320313 26.38366211 191.52320313 26.38366211 191.546875 28.36914062 C191.51803893 35.40874664 191.37818264 40.35230715 187 46 C183.70967742 49 183.70967742 49 181 49 C181 45 181 45 183.4375 42.3125 C184.283125 41.549375 185.12875 40.78625 186 40 C188.76628316 37.23371684 187.33443472 29.03159818 187.375 25.3125 C187.41238281 24.03181641 187.44976562 22.75113281 187.48828125 21.43164062 C187.79299688 13.8193794 187.79299688 13.8193794 184.6640625 7.16796875 C180.41959543 3.71389364 177.17139557 3.86787947 171.84370422 3.84178162 C171.11018508 3.83684364 170.37666593 3.83190566 169.62091893 3.82681805 C167.15654266 3.81142767 164.69219248 3.80307827 162.2277832 3.79467773 C160.46381398 3.78510042 158.69984706 3.77509043 156.93588257 3.76467896 C152.14077331 3.73760794 147.34565418 3.71661026 142.55051064 3.69667697 C137.54164593 3.67483097 132.53281169 3.64743551 127.52397156 3.62062073 C118.03615049 3.57067508 108.54831252 3.52574319 99.06045836 3.48259836 C88.26009049 3.43324199 77.45975319 3.37831793 66.65941489 3.32291877 C44.43963841 3.20906998 22.21983274 3.10223725 0 3 C0 2.01 0 1.02 0 0 Z " fill="#7FE3EE" transform="translate(17,6)"/>
<path d="M0 0 C0.33 0 0.66 0 1 0 C1 9.24 1 18.48 1 28 C-1.97 28 -4.94 28 -8 28 C-8.33 26.68 -8.66 25.36 -9 24 C-12.3 23.67 -15.6 23.34 -19 23 C-19.33 24.65 -19.66 26.3 -20 28 C-22.64 28 -25.28 28 -28 28 C-25.43696551 18.84951721 -22.20468777 9.93993804 -19 1 C-15.7 1 -12.4 1 -9 1 C-6.36 7.93 -3.72 14.86 -1 22 C-0.67 14.74 -0.34 7.48 0 0 Z " fill="#BEF2D9" transform="translate(82,17)"/>
<path d="M0 0 C2.31 0 4.62 0 7 0 C7.33 3.96 7.66 7.92 8 12 C8.99 12 9.98 12 11 12 C11.33 8.04 11.66 4.08 12 0 C14.31 0 16.62 0 19 0 C19.13572155 2.39774745 19.23436868 4.78775245 19.3125 7.1875 C19.35439453 7.86103516 19.39628906 8.53457031 19.43945312 9.22851562 C19.53419871 13.11308478 19.13299243 14.82476564 16.76171875 17.94921875 C13.98938771 20.00788041 12.87917024 20.68449243 9.5 20.625 C8.7678125 20.63789062 8.035625 20.65078125 7.28125 20.6640625 C3.71809309 19.62684217 2.22492594 17.93162144 0 15 C-0.36771245 12.1612599 -0.48630804 9.98179849 -0.3125 7.1875 C-0.28994141 6.49462891 -0.26738281 5.80175781 -0.24414062 5.08789062 C-0.18562661 3.39098427 -0.0959548 1.69520139 0 0 Z " fill="#94E3E1" transform="translate(124,25)"/>
<path d="M0 0 C2.31 0 4.62 0 7 0 C7 1.32 7 2.64 7 4 C8.98 4 10.96 4 13 4 C13 5.98 13 7.96 13 10 C11.02 10 9.04 10 7 10 C7 12.31 7 14.62 7 17 C8.98 17 10.96 17 13 17 C13.66 18.65 14.32 20.3 15 22 C11.29841925 24.4677205 8.29297513 24.65647105 4 24 C1.5 22.625 1.5 22.625 0 20 C-0.31607666 16.63905152 -0.2311397 13.3643667 0 10 C-0.99 10 -1.98 10 -3 10 C-3 8.02 -3 6.04 -3 4 C-2.01 4 -1.02 4 0 4 C0 2.68 0 1.36 0 0 Z " fill="#80DEE8" transform="translate(147,21)"/>
<path d="M0 0 C2.125 0.375 2.125 0.375 4 1 C4.38218767 2.65614657 4.71395102 4.32457024 5 6 C4 7 4 7 1.4375 7.0625 C0.2309375 7.0315625 0.2309375 7.0315625 -1 7 C-1.625 4.625 -1.625 4.625 -2 2 C-1.34 1.34 -0.68 0.68 0 0 Z " fill="#0A0D0C" transform="translate(91,31)"/>
<path d="M0 0 C1.32 0 2.64 0 4 0 C4.33 1.98 4.66 3.96 5 6 C3.02 6.99 3.02 6.99 1 8 C0.34 7.34 -0.32 6.68 -1 6 C-0.625 2.875 -0.625 2.875 0 0 Z " fill="#0D1211" transform="translate(111,31)"/>
<path d="M0 0 C0.99 0.33 1.98 0.66 3 1 C3 1.66 3 2.32 3 3 C1.57421875 4.25390625 1.57421875 4.25390625 -0.3125 5.5625 C-0.92738281 5.99691406 -1.54226562 6.43132813 -2.17578125 6.87890625 C-4 8 -4 8 -7 9 C-5.66087415 4.61740632 -3.87774964 2.45906075 0 0 Z " fill="#B7E9D0" transform="translate(15,7)"/>
<path d="M0 0 C-1.34634457 4.4062186 -3.19374374 6.43077702 -7 9 C-7.66 9 -8.32 9 -9 9 C-9 5 -9 5 -6.75 2.25 C-4 0 -4 0 0 0 Z " fill="#3FBBE1" transform="translate(207,46)"/>
<path d="M0 0 C1.9451 2.91765 2.45276317 4.62537285 3 8 C1.35 8 -0.3 8 -2 8 C-1.125 1.125 -1.125 1.125 0 0 Z " fill="#2C3832" transform="translate(68,26)"/>
</svg>
